HIERARCHY
ROOT Hips
{
  OFFSET -10.0563 7.73376 -472.55
  CHANNELS 6 Xposition Yposition Zposition Zrotation Xrotation Yrotation
  JOINT Spine
  {
    OFFSET 0 0 0
    CHANNELS 3 Zrotation Xrotation Yrotation
    JOINT Spine1
    {
      OFFSET 19 0 0
      CHANNELS 3 Zrotation Xrotation Yrotation
      JOINT Neck
      {
        OFFSET 22.5 0.6 0
        CHANNELS 3 Zrotation Xrotation Yrotation
        JOINT Head
        {
          OFFSET 14 0.0308777 0
          CHANNELS 3 Zrotation Xrotation Yrotation
          End Site
          {
            OFFSET 17 0 0
          }
        }
      }
      JOINT LeftShoulder
      {
        OFFSET 19.8 3.7 4.3
        CHANNELS 3 Zrotation Xrotation Yrotation
        JOINT LeftArm
        {
          OFFSET 8 0 0
          CHANNELS 3 Zrotation Xrotation Yrotation
          JOINT LeftForeArm
          {
            OFFSET 15.2 0 0
            CHANNELS 3 Zrotation Xrotation Yrotation
            JOINT LeftHand
            {
              OFFSET 17.8 0 0
              CHANNELS 3 Zrotation Xrotation Yrotation
              End Site
              {
                OFFSET 7.2 0 0
              }
            }
          }
        }
      }
      JOINT RightShoulder
      {
        OFFSET 19.8 3.7 -4.3
        CHANNELS 3 Zrotation Xrotation Yrotation
        JOINT RightArm
        {
          OFFSET 8 0 0.151654
          CHANNELS 3 Zrotation Xrotation Yrotation
          JOINT RightForeArm
          {
            OFFSET 15.2 0 0
            CHANNELS 3 Zrotation Xrotation Yrotation
            JOINT RightHand
            {
              OFFSET 17.8 0 0
              CHANNELS 3 Zrotation Xrotation Yrotation
              End Site
              {
                OFFSET 7.2 0 0
              }
            }
          }
        }
      }
    }
  }
  JOINT LeftUpLeg
  {
    OFFSET 5.98425 -7.666 4.78879
    CHANNELS 3 Zrotation Xrotation Yrotation
    JOINT LeftLeg
    {
      OFFSET 16 0 0
      CHANNELS 3 Zrotation Xrotation Yrotation
      JOINT LeftFoot
      {
        OFFSET 18 0 0
        CHANNELS 3 Zrotation Xrotation Yrotation
        End Site
        {
          OFFSET 0 -10.8 0
        }
      }
    }
  }
  JOINT RightUpLeg
  {
    OFFSET 5.98425 -7.66598 -4.78879
    CHANNELS 3 Zrotation Xrotation Yrotation
    JOINT RightLeg
    {
      OFFSET 16 0 0
      CHANNELS 3 Zrotation Xrotation Yrotation
      JOINT RightFoot
      {
        OFFSET 18 0 0
        CHANNELS 3 Zrotation Xrotation Yrotation
        End Site
        {
          OFFSET 0 -10.8 0
        }
      }
    }
  }
  JOINT Tail
  {
    OFFSET 6.83696 -0.722574 0
    CHANNELS 3 Zrotation Xrotation Yrotation
    JOINT Tail1
    {
      OFFSET 12 0 0
      CHANNELS 3 Zrotation Xrotation Yrotation
      End Site
      {
        OFFSET 12 0 0
      }
    }
  }
}
MOTION
Frames:	14
Frame Time:	0.0166667
30.9774 46.0871 -395.199 -4.02749 -3.78597 114.75 -173.565 -0.920359 -14.2361 0.381802 -1.59724 15.3631 -6.51293 -4.18799 3.66744 -108.767 60.6797 126.034 -112.291 -40.7111 -135.428 122.853 -12.5933 -124.347 -68.5372 9.55395 3.66856 -14.6165 2.65617 -15.6441 76.7864 -25.5313 38.2431 52.2797 -53.9754 -34.9184 -64.0479 -11.0528 -2.70418 -2.61025 1.61591 -5.99707 -134.517 -2.49084 -18.1144 71.6416 16.193 10.4471 42.1173 -3.91969 -6.74826 -109.782 -0.180384 -1.45363 84.4003 -2.16868 -2.75357 52.2869 0.291567 -1.99871 -25.3348 41.8717 -5.64592 13.3676 -43.4061 5.96451 
31.9213 46.43 -393.681 -2.30124 -2.96271 117.082 -171.895 -1.71774 -10.682 -1.18855 -2.62146 13.2778 -6.17313 -5.18828 5.37025 -107.469 58.0322 125.809 -112.293 -39.6087 -137.335 119.529 -14.1632 -125.031 -71.2225 9.51674 4.51497 -15.4763 2.86993 -16.2357 76.3581 -26.4934 39.3807 57.2495 -51.0443 -33.9745 -67.081 -7.87676 -3.73882 3.72973 2.01344 -14.7292 -131.98 -3.96979 -15.9564 70.9755 17.0453 10.2384 42.7123 -4.18836 -7.10146 -112.341 0.214423 0.00297159 86.8392 -5.09016 -3.34883 45.3085 0.376596 -1.45043 -28.4107 48.0472 -3.44209 11.4792 -48.746 6.0176 
32.8109 46.5717 -392.169 -1.80723 -1.77171 118.595 -171.268 -1.96325 -8.2215 -3.11915 -3.13707 11.6745 -5.40405 -6.042 6.74277 -106.785 54.9252 125.707 -112.052 -38.2947 -139.125 116.423 -16.3731 -126.488 -73.8171 9.62785 5.20438 -16.1719 2.91116 -16.3196 76.5225 -26.807 40.9204 62.6477 -49.3921 -31.3262 -73.8734 -0.106094 -4.74336 13.7931 0.0335037 -19.5128 -130.974 -4.67561 -15.3447 71.0814 17.8572 10.5802 43.5486 -4.46162 -7.47792 -116.962 0.167356 -0.0679585 89.5489 -6.89495 -3.67627 40.702 0.334382 -1.15255 -32.9056 52.1885 0.273299 10.3213 -53.8527 6.69448 
33.6807 46.6642 -390.724 -1.09705 -0.894259 120.381 -171.028 -2.09394 -5.38956 -3.8068 -3.55056 10.3583 -4.93896 -6.7722 7.85451 -106.352 52.1355 125.547 -111.907 -37.4194 -140.415 113.756 -18.259 -128.616 -75.5757 9.11532 6.12525 -16.9545 3.05282 -16.5496 76.115 -27.6762 41.7325 62.6709 -47.9494 -31.4605 -77.432 3.44177 -4.53389 22.7604 -2.41378 -25.9907 -129.361 -5.10695 -14.045 71.1201 19.034 10.1463 43.7606 -4.63717 -7.71919 -121.434 -0.502296 -1.16739 92.0221 -5.79859 -3.42612 36.4957 -0.08594 -1.40713 -36.9245 55.4491 4.70648 10.0051 -58.2721 8.01119 
34.5329 46.698 -389.366 -0.398325 -0.431365 122.023 -170.875 -2.05672 -2.80038 -4.04922 -3.78333 9.37594 -4.34577 -7.09297 8.97094 -106.341 50.7593 125.462 -111.603 -36.494 -141.45 111.245 -19.5419 -129.712 -76.3754 9.18917 6.17479 -17.7853 3.00394 -15.9777 75.7367 -28.3204 42.0179 60.8505 -46.5939 -31.3404 -80.9086 4.81416 -3.78523 31.0754 -5.78746 -33.6823 -127.861 -5.34217 -13.0073 71.8696 19.5201 9.63465 44.4354 -4.77615 -7.92463 -125.71 -0.976805 -1.78129 93.4426 -4.29204 -3.25565 33.1286 -0.53557 -1.79577 -40.9041 57.6625 10.1453 10.8756 -62.0817 10.2733 
35.3606 46.7264 -388.104 0.319524 -0.416447 123.64 -170.82 -1.84577 -0.260415 -3.62729 -3.81668 8.57039 -4.01495 -6.91769 9.64943 -106.696 50.268 125.674 -111.18 -35.5919 -142.176 109.431 -20.299 -130.921 -76.4862 8.80443 6.36333 -18.8076 3.08496 -15.6403 75.3094 -29.3559 43.0924 59.4964 -43.2376 -32.5391 -83.9783 3.47816 -3.5576 35.5729 -9.32969 -44.265 -125.866 -5.39773 -12.0511 72.6578 20.5126 8.91922 44.1512 -4.92367 -8.17466 -129.665 -1.1029 -2.08019 93.3503 -4.43491 -3.28064 32.48 -0.64783 -1.86696 -43.6001 58.4611 15.4881 12.5817 -64.4526 13.143 
36.2064 46.7134 -386.915 0.746461 -0.595478 125.188 -171.332 -1.44202 2.28174 -2.54162 -3.62788 7.91278 -3.3623 -7.52658 10.7384 -106.459 50.5132 124.852 -111.005 -34.909 -143.131 107.809 -20.6547 -132.387 -75.9561 7.76746 6.52171 -19.6896 3.19649 -15.3147 74.4137 -30.6517 43.1112 60.8491 -36.9689 -32.2472 -87.092 -1.32835 -5.40067 30.5585 -7.94781 -54.1245 -124.007 -5.29548 -11.8109 73.5677 21.2336 8.39934 43.8301 -5.04926 -8.4025 -133.402 -0.716097 -1.7978 91.9162 -5.68467 -3.58316 33.8211 -0.538625 -1.72872 -44.691 57.8207 19.9127 13.9924 -65.3249 15.6354 
37.0354 46.6602 -385.801 1.34297 -0.980128 126.74 -171.516 -0.867334 5.07984 -1.76304 -3.31753 7.20642 -2.8971 -7.85343 11.2022 -106.291 50.6073 124.339 -110.823 -34.2316 -144.09 106.289 -20.9369 -133.566 -75.1498 7.34988 6.58533 -20.7004 2.99072 -14.0585 73.9049 -31.6843 43.7979 62.1408 -31.4972 -34.903 -90.5471 5.29594 -6.27422 34.3637 -9.31976 -47.4177 -121.766 -5.07756 -11.1805 74.4675 21.9581 7.53116 43.3808 -5.13251 -8.56549 -137.365 0.277863 -0.597022 90.6537 -5.33891 -4.10714 36.9629 -0.437253 -1.8281 -43.937 56.3157 23.2425 15.2174 -64.6707 17.7419 
37.8111 46.6489 -384.757 1.99417 -1.93454 128.03 -171.164 -0.145688 7.78996 -1.13912 -2.8535 6.3615 -2.1169 -8.57743 11.8486 -105.513 50.6166 123.698 -110.503 -33.5282 -144.765 105.38 -20.9521 -134.553 -73.6716 6.61328 6.59029 -21.4576 2.94515 -13.2582 73.3752 -32.5817 44.0857 63.428 -25.6238 -37.3245 -93.0327 11.8917 -8.23277 34.4934 -7.82944 -37.5189 -118.909 -4.5681 -10.6316 75.5094 22.1725 6.46839 42.8285 -5.17797 -8.70528 -139.355 1.08993 0.327192 87.5637 -5.59042 -4.70149 39.3518 -0.252457 -1.76016 -40.1694 52.9773 24.8225 15.2251 -61.7515 18.3924 
38.6028 46.5227 -383.699 2.11671 -2.76419 128.924 -171.431 0.63093 10.2386 -0.621753 -2.20305 5.25316 -0.51108 -9.77318 13.5923 -104.476 51.4792 122.278 -110.018 -32.6396 -145.428 105.293 -21.2439 -135.398 -71.3766 6.73301 5.82543 -22.2832 2.96093 -12.6991 73.2541 -32.7617 44.0959 63.1004 -19.8509 -38.6303 -93.7702 13.9965 -10.5222 30.021 -5.00133 -31.1204 -116.546 -4.11821 -10.9064 76.3913 22.3819 5.84612 42.2776 -5.20321 -8.80518 -141.276 2.10715 1.13529 84.1061 -5.17106 -5.51183 41.6016 -0.0965924 -1.74098 -35.0662 47.9992 25.084 14.437 -56.9211 18.1337 
39.3465 46.4461 -382.67 2.75551 -3.80272 129.627 -171.057 1.25665 12.5973 -0.256992 -1.73286 3.95987 0.535823 -10.1366 14.198 -104.538 50.3757 122.096 -109.646 -31.7829 -146.376 105.479 -21.4441 -136.561 -69.1398 7.29858 5.03141 -22.5264 2.7209 -11.7374 73.12 -33.0969 44.396 61.2053 -16.0093 -38.7973 -93.5657 11.7917 -12.5474 20.9788 -1.24618 -25.0377 -113.698 -3.80763 -10.913 77.4203 21.6118 5.13248 41.7731 -5.12744 -8.78779 -141.762 3.07678 2.2281 79.7257 -5.40898 -6.61175 44.4391 0.221173 -1.54538 -28.9379 42.2803 25.2122 13.6665 -50.6237 17.5384 
40.0289 46.372 -381.64 3.82353 -4.89798 129.918 -170.208 1.68399 14.421 -0.0822075 -1.46936 2.69709 2.00233 -10.8146 15.9178 -104.175 50.7862 121.157 -109.22 -30.9246 -147.217 105.803 -22.0693 -137.455 -67.0688 7.72086 4.04945 -22.3199 2.71078 -11.5525 73.2244 -33.3107 45.167 57.8171 -14.0422 -39.0442 -92.0739 6.88213 -13.06 12.0679 1.30926 -18.5325 -110.203 -3.92953 -10.8241 77.7194 21.7354 4.67997 41.9043 -5.16558 -8.84347 -141.636 3.97746 3.74652 75.6232 -5.45538 -8.08973 47.3041 0.593817 -1.3214 -21.758 35.4758 25.269 13.0318 -42.4552 16.6964 
40.6306 46.3217 -380.556 4.72889 -5.67009 129.362 -169.893 1.72964 14.7768 0.653316 -1.40996 2.18015 2.89059 -11.0712 17.4477 -103.986 51.1222 120.9 -108.854 -30.2255 -147.882 106.512 -22.3379 -138.066 -64.679 8.61473 3.06878 -22.3502 2.7142 -11.5691 73.1258 -33.7667 45.8076 52.711 -13.1212 -40.4498 -88.5376 -0.744378 -11.9153 0.521608 2.30101 -7.95284 -106.846 -4.19452 -10.1407 77.625 21.0498 4.08724 42.2685 -5.09437 -8.7404 -141.348 5.04344 5.05888 71.5615 -5.72658 -9.77216 50.2802 1.06856 -0.997666 -14.3032 27.3954 25.5834 12.7515 -32.4045 15.5472 
41.192 46.1419 -379.354 5.41504 -6.20896 128.127 -170.062 1.5452 14.1349 1.702 -1.39005 1.92958 3.59309 -11.5532 19.3811 -103.738 51.0804 120.551 -108.531 -29.5957 -148.527 107.413 -23.0591 -138.49 -62.0661 10.217 1.73628 -22.815 2.87521 -12.1533 73.1865 -34 46.4659 49.5926 -12.0105 -43.2183 -85.5218 -0.0353198 -10.1122 -1.98217 0.943797 -0.565594 -103.904 -5.00381 -10.1272 77.6216 20.4214 4.05715 42.7932 -5.00945 -8.61731 -141.449 5.70842 4.79761 69.0638 -5.56999 -10.474 52.1867 1.27222 -0.885437 -6.92384 18.9677 26.1631 12.7494 -21.5467 14.4012 
